{
    "asset" : {
        "generator" : "Khronos glTF Blender I/O v1.8.19",
        "version" : "2.0"
    },
    "scene" : 0,
    "scenes" : [
        {
            "name" : "Scene",
            "nodes" : [
                0
            ]
        }
    ],
    "nodes" : [
        {
            "mesh" : 0,
            "name" : "Cube"
        }
    ],
    "materials" : [
        {
            "doubleSided" : true,
            "name" : "Material",
            "pbrMetallicRoughness" : {
                "baseColorFactor" : [
                    0.8000000715255737,
                    0.38168010115623474,
                    0.09842270612716675,
                    1
                ],
                "metallicFactor" : 0.21259842813014984,
                "roughnessFactor" : 0.4157480299472809
            }
        }
    ],
    "meshes" : [
        {
            "name" : "Cube",
            "primitives" : [
                {
                    "attributes" : {
                        "POSITION" : 0,
                        "NORMAL" : 1,
                        "TEXCOORD_0" : 2
                    },
                    "indices" : 3,
                    "material" : 0
                }
            ]
        }
    ],
    "accessors" : [
        {
            "bufferView" : 0,
            "componentType" : 5126,
            "count" : 4445,
            "max" : [
                0.9998575448989868,
                0.9998575448989868,
                0.9998575448989868
            ],
            "min" : [
                -0.9998575448989868,
                -0.9998575448989868,
                -0.9998575448989868
            ],
            "type" : "VEC3"
        },
        {
            "bufferView" : 1,
            "componentType" : 5126,
            "count" : 4445,
            "type" : "VEC3"
        },
        {
            "bufferView" : 2,
            "componentType" : 5126,
            "count" : 4445,
            "type" : "VEC2"
        },
        {
            "bufferView" : 3,
            "componentType" : 5123,
            "count" : 20736,
            "type" : "SCALAR"
        }
    ],
    "bufferViews" : [
        {
            "buffer" : 0,
            "byteLength" : 53340,
            "byteOffset" : 0
        },
        {
            "buffer" : 0,
            "byteLength" : 53340,
            "byteOffset" : 53340
        },
        {
            "buffer" : 0,
            "byteLength" : 35560,
            "byteOffset" : 106680
        },
        {
            "buffer" : 0,
            "byteLength" : 41472,
            "byteOffset" : 142240
        }
    ],
    "buffers" : [
        {
            "byteLength" : 183712,
            "uri" : "data:application/octet-stream;base64,"
        }
    ]
}
